<?xml version="1.0" encoding="utf-8"?>
<!-- Generator: Adobe Illustrator 19.1.0, SVG Export Plug-In . SVG Version: 6.00 Build 0)  -->
<svg version="1.1" id="Ebene_1" xmlns="http://www.w3.org/2000/svg" xmlns:xlink="http://www.w3.org/1999/xlink" x="0px" y="0px"
	 viewBox="0 0 141.7 141.7" style="enable-background:new 0 0 141.7 141.7;" xml:space="preserve">
<style type="text/css">
	.st0{fill:#005046;}
	.st1{fill:#F5AA00;}
	.st2{fill:#FFFFFF;}
	.st3{fill:#005346;}
</style>
<polygon class="st0" points="0,0 0,141.7 141.7,141.7 141.7,0 0,0 "/>
<path class="st1" d="M111.7,18.4c0,4.3,2.7,7.4,6.4,7.4c3.7,0,6.4-3.1,6.4-7.4c0-4.3-2.7-7.4-6.4-7.4
	C114.4,11.1,111.7,14.1,111.7,18.4L111.7,18.4z M120.9,18.4c0,2.6-1,4.3-2.8,4.3c-1.7,0-2.8-1.6-2.8-4.3s1.1-4.3,2.8-4.3
	C119.8,14.1,120.9,15.8,120.9,18.4L120.9,18.4z M126.7,25.4h3.7v-14h-3.7L126.7,25.4L126.7,25.4z"/>
<path class="st2" d="M13.9,17.9h4.4v-2h-6.9v9.6h7.1v-2h-4.6v-2h4v-2h-4V17.9L13.9,17.9z M22.8,17.9h4.4v-2h-6.9v9.6h2.5v-4h4v-2h-4
	V17.9L22.8,17.9z M31.2,17.9h4.4v-2h-6.9v9.6h2.5v-4h4v-2h-4V17.9L31.2,17.9z M35.5,25.6h2.6l0.6-1.9h3.1l0.6,1.9h2.7L41.5,16h-2.4
	L35.5,25.6L35.5,25.6z M39.4,21.8l0.9-3.3l0.9,3.3H39.4L39.4,21.8z M48.9,16h-2.5v9.6h2.5V16L48.9,16z M51.2,25.6h2.5v-3.5h0.9
	l1.9,3.5h2.9l-2.4-3.9c1.2-0.5,1.8-1.4,1.8-2.6c0-0.8-0.3-1.5-0.8-2.1c-0.8-0.8-1.7-1-4-1h-2.9V25.6L51.2,25.6z M53.7,17.9h0.8
	c1.4,0,1.8,0.3,1.8,1.1s-0.5,1.2-1.9,1.2h-0.7V17.9L53.7,17.9z M67.9,18.9c0-0.8,0-1.1-0.3-1.5c-0.4-1-1.6-1.6-3.4-1.6
	c-2.3,0-3.7,1.1-3.7,2.9c0,1.3,0.7,2.1,2.8,3l1,0.4c0.8,0.4,1.1,0.6,1.1,1c0,0.5-0.5,0.8-1.3,0.8c-1.1,0-1.6-0.5-1.7-1.6h-2.3v0.2
	c0,2.2,1.4,3.3,4,3.3c2.4,0,3.9-1.1,3.9-3c0-0.8-0.3-1.5-1-2c-0.5-0.4-0.8-0.6-2.2-1.2c-0.5-0.2-0.8-0.3-0.9-0.4
	c-0.7-0.3-0.9-0.5-0.9-0.8c0-0.5,0.4-0.7,1.2-0.7c0.9,0,1.3,0.4,1.3,1.3L67.9,18.9L67.9,18.9L67.9,18.9z"/>
<path class="st2" d="M112.7,79.7c0-14.3-11.9-22.7-21.7-22.7c-9.7,0-16.2,5.6-20.2,12.6C66.8,62.6,60.4,57,50.7,57
	C40.9,57,29,65.4,29,79.7c0,14.4,12.8,21.9,17.6,26.2c0.1,0.1,19.1,14.7,24.2,24.5c5.2-9.8,24.2-24.4,24.2-24.5
	C100,101.6,112.7,94.1,112.7,79.7L112.7,79.7z"/>
<path class="st3" d="M80.9,89.8c0,0-4.1,0-4.1,4.1v25.3c0,0,0,4.1,4.1,4.1h47.3c0,0,4.1,0,4.1-4.1V93.9c0,0,0-4.1-4.1-4.1H80.9
	L80.9,89.8z"/>
<path class="st2" d="M102.3,107.9c0.7,0.5,1.5,0.8,2.3,0.8c0.9,0,1.7-0.3,2.4-0.9L127.7,92c-0.3-0.1-0.6-0.1-0.9-0.1H82.3
	c-0.3,0-0.6,0.1-0.9,0.1L102.3,107.9C102.3,107.9,102.3,107.9,102.3,107.9L102.3,107.9z"/>
<path class="st2" d="M108.6,110.1c-1.2,0.9-2.6,1.4-4,1.4c-1.4,0-2.8-0.5-3.9-1.3c0,0,0,0,0,0L79.2,93.9c-0.2,0.4-0.3,0.9-0.3,1.5
	l0,22.4c0,0.8,0.3,1.5,0.7,2l13-9.9c0.3-0.2,0.8-0.2,1,0.1c0.2,0.3,0.2,0.8-0.1,1l-12.8,9.7c0.5,0.3,1.1,0.5,1.7,0.5h44.5
	c0.6,0,1.2-0.2,1.7-0.5l-12.7-9.7c-0.3-0.2-0.4-0.7-0.1-1c0.2-0.3,0.7-0.4,1-0.1l12.9,9.9c0.4-0.6,0.7-1.3,0.7-2l0-22.4
	c0-0.5-0.1-1-0.3-1.5L108.6,110.1C108.7,110.1,108.7,110.1,108.6,110.1L108.6,110.1z"/>
</svg>
